<svg width="228" height="251" viewBox="0 0 228 251" fill="none" xmlns="http://www.w3.org/2000/svg">
<g clip-path="url(#clip0_208_4285)">
<path d="M136.584 248.103C126.954 249.16 117.27 247.709 107.787 243.788C102.823 241.736 97.8283 239.756 92.8229 237.788C92.5055 237.664 91.6935 237.58 91.3482 237.62C90.5788 237.708 89.8428 238.028 89.3308 238.505C84.008 243.376 77.4399 247.043 69.8277 249.404C67.8903 250 65.9223 250.421 63.9663 250.647C61.1222 250.975 58.2595 250.897 55.4727 250.428C47.6246 249.097 42.5191 244.724 39.8777 237.058C38.303 232.496 38.4697 228.214 40.3751 224.321C42.3845 220.227 46.2832 216.862 50.8153 215.326C52.542 214.743 54.3181 214.35 56.2461 214.127C59.6102 213.739 63.3756 213.897 68.0943 214.619C73.1571 215.394 78.3666 216.851 84.02 219.065L84.908 219.415C85.3147 219.569 85.8374 219.623 86.3401 219.566C87.0187 219.487 87.6628 219.207 87.9588 218.698C94.1589 208.066 98.383 196.578 102.174 185.724C102.483 184.829 102.163 183.84 101.384 183.3C100.955 183.005 100.443 182.887 99.951 182.944C99.5497 182.991 99.1617 183.155 98.8377 183.428C98.2563 183.908 98.011 184.113 97.7803 184.34C90.3562 191.464 81.3293 196.411 70.9611 199.027C65.9383 200.294 61.8182 201.083 57.9955 201.523C56.8981 201.65 55.7927 201.754 54.6901 201.823C50.0713 202.12 45.2259 201.338 39.8831 199.427C35.1923 197.75 30.2549 195.78 25.9601 192.712C25.8294 192.619 25.4028 192.404 25.2588 192.34C24.8921 192.193 24.4961 192.141 24.1067 192.187C23.4507 192.263 22.8374 192.603 22.508 193.179C22.4134 193.304 22.2067 193.597 22.0907 194.029C20.1907 201.112 18.5093 208.096 18.8013 215.511C18.9733 219.691 16.5746 222.787 12.8305 223.218C9.14776 223.482 6.0917 221.026 5.51568 217.661C4.81434 213.513 5.29835 209.263 5.85702 205.256C7.05972 196.603 9.07443 188.917 12.0238 181.741C12.6158 180.314 12.4598 179.009 11.5545 177.761C8.58508 173.674 5.28635 168.857 3.72631 163.427C-0.313773 149.346 -1.04446 137.683 1.42893 126.724L1.70094 125.501C3.09563 119.256 4.41566 113.362 6.93438 107.721C12.6892 94.854 21.0507 86.0232 32.5123 80.7151C37.1244 78.579 42.1618 77.7817 46.4752 77.2843L48.1273 77.1056C53.9994 76.4976 60.9182 76.131 67.701 78.007C74.6251 79.919 83.3333 83.0938 89.2575 90.7019C89.3441 90.8126 89.6095 91.0739 89.7121 91.1646C90.2135 91.5886 90.9255 91.8046 91.5815 91.7286C91.9322 91.6886 92.2669 91.5633 92.5402 91.3486C93.0309 90.9833 93.2829 90.7873 93.5056 90.5726L95.3229 88.8392C98.2297 86.0698 101.142 83.2991 104.004 80.4884C104.939 79.555 105.199 78.0763 105.042 77.011C103.864 68.6841 103.392 61.3013 103.606 54.4518C104.055 39.8529 107.559 27.4446 114.323 16.5297C118.187 10.2856 123.162 5.52413 129.114 2.37473C131.421 1.15737 133.808 0.396021 136.194 0.121348C141.516 -0.491998 146.645 1.26671 151.043 5.21212C155.682 9.37088 158.063 13.5763 158.544 18.4484C158.943 22.4538 158.526 26.4899 157.303 30.446C152.8 44.9743 145.388 57.8772 135.272 68.7895C131.629 72.7269 127.704 76.5536 123.908 80.2577L121.471 82.6351C120.514 83.5764 119.458 84.9525 119.742 87.2632C120.695 95.1407 121.593 103.025 122.455 110.918C122.538 111.63 122.592 112.352 122.653 113.073C122.776 114.532 122.898 116.001 123.162 117.489C123.325 118.399 124.069 119.097 124.988 119.204C125.15 119.225 125.31 119.224 125.469 119.205C126.204 119.12 126.854 118.651 127.157 117.945L127.666 116.741L130.31 109.956C134.592 98.9314 139.027 87.5392 144.264 76.7483L146.223 72.7122C149.88 65.1694 153.532 57.6319 157.343 50.1677C158.526 47.8544 160.12 45.625 161.947 43.7249C163.175 42.4489 164.702 41.6716 166.352 41.4809C169.304 41.1409 171.977 42.7009 173.159 45.4583C174.375 48.3037 173.93 50.8984 171.843 53.1785C170.077 55.1012 168.823 57.2506 167.832 59.1013L165.89 62.832C165.483 63.624 165.616 64.5827 166.224 65.2347C166.688 65.7254 167.344 65.9587 167.995 65.8841C168.199 65.8601 168.398 65.8027 168.595 65.7174L170.053 65.0854C174.578 63.1373 179.054 61.9053 183.374 61.408C187.468 60.936 191.54 61.1146 195.485 61.9373C206.693 64.284 215.18 70.6575 220.695 80.8751C224.734 88.3739 226.871 96.2874 227.038 104.404C227.142 109.582 226.382 114.672 224.768 119.523C221.074 130.675 215.099 140.484 206.504 149.525C198.981 157.439 191.758 162.574 183.767 165.678C181.771 166.458 179.686 167.008 177.607 167.562L174.83 168.324C174.503 168.418 172.994 168.753 172.994 168.753C172.269 168.917 171.683 169.46 171.462 170.173C171.239 170.881 171.41 171.657 171.914 172.212C172.538 172.908 172.762 173.157 173.001 173.393C178.345 178.702 181.806 184.228 183.587 190.285C186.133 198.954 186.062 206.794 183.369 214.243C180.31 222.709 175.793 229.653 169.571 235.48C166.808 238.056 163.354 240.196 158.686 242.205C151.656 245.244 144.383 247.211 137.065 248.053L136.589 248.103H136.584ZM126.641 165.532C125.453 165.669 124.586 166.398 124.078 167.706L116.275 187.411C115.459 189.481 114.674 191.56 113.881 193.633C112.941 196.12 111.995 198.6 111.014 201.075C109.473 204.948 107.877 208.811 106.174 212.622C105.015 215.197 103.772 217.734 102.502 220.339L100.723 223.999C100.468 224.527 100.447 225.137 100.664 225.679C100.876 226.222 101.31 226.654 101.85 226.866L106.02 228.506C109.257 229.784 112.467 231.053 115.701 232.256C122.063 234.622 128.734 235.429 135.526 234.646L137.14 234.426C142.484 233.616 147.724 232.153 152.728 230.076C157.759 227.984 161.623 225.022 164.548 221.025C166.924 217.777 168.819 214.275 170.346 210.318C172.773 204.034 172.473 197.639 169.452 191.329C166.019 184.161 160.079 179.1 154.18 174.697C152.193 173.218 149.708 171.986 146.584 170.932L143.996 170.056C138.783 168.273 133.39 166.43 127.722 165.565C127.536 165.541 126.828 165.513 126.642 165.534L126.641 165.532ZM57.7688 227.641C56.7568 227.757 55.7741 227.985 54.8567 228.326C52.906 229.049 52.0953 230.868 52.7834 232.96C53.3594 234.726 54.8234 236.89 58.4875 237.166C59.8688 237.27 61.2635 237.242 62.6316 237.084C66.0756 236.686 69.4597 235.484 72.9664 233.394C73.5998 233.018 73.9851 232.337 73.9865 231.604C73.9931 230.869 73.6051 230.181 72.9758 229.794C72.8038 229.688 72.2918 229.426 72.0971 229.374C68.4317 228.346 63.5156 227.206 58.2955 227.59C58.2661 227.587 57.7968 227.637 57.7688 227.639V227.641ZM82.0173 118.876C81.6266 118.921 81.2546 119.073 80.9613 119.353C80.9613 119.359 77.5972 122.577 77.5972 122.577C75.8532 124.245 74.1131 125.907 72.3278 127.521L71.4504 128.316C61.6795 137.148 51.5807 146.276 43.0631 156.798L41.8791 158.253C38.051 162.969 34.0856 167.842 31.0136 173.353C29.0082 176.936 29.2322 178.085 32.4016 180.625C36.2977 183.757 40.7071 185.381 45.6539 187.035C49.1513 188.201 52.3873 188.591 55.5487 188.227C56.0074 188.173 56.4634 188.104 56.9181 188.023L59.6902 187.515C62.0755 187.08 64.4609 186.649 66.821 186.103C74.3451 184.371 80.9413 181.101 86.4147 176.385C91.6122 171.913 96.3496 166.29 101.343 158.697C106.238 151.251 107.945 143.084 108.995 133.115C110.193 121.724 109.05 110.562 107.775 101.146C107.745 100.926 107.557 100.386 107.465 100.19C107.185 99.6035 106.604 99.0861 105.968 98.9474C105.687 98.8888 105.392 98.8701 105.11 98.9035C104.748 98.9448 104.407 99.0701 104.13 99.3035L102.567 100.658C101.474 101.616 100.407 102.552 99.259 103.372C97.415 104.668 96.7816 106.333 97.2763 108.596C98.2683 113.128 98.5457 117.525 98.095 121.668C97.5163 127.092 96.583 132.563 95.3229 137.939C93.1855 147.043 88.5961 154.791 81.676 160.975C77.6079 164.608 73.3211 166.637 68.577 167.184C67.293 167.332 65.9743 167.369 64.6076 167.292C62.0235 167.142 60.1435 165.841 59.0168 163.421C57.9288 161.089 58.1515 158.897 59.6955 156.73C60.8555 155.113 62.4809 154.203 64.6756 153.95C64.9703 153.917 66.1543 153.854 66.437 153.822C68.7384 153.557 70.8384 152.535 72.8611 150.705C76.7452 147.168 79.5853 142.779 81.3093 137.642C82.9533 132.76 83.7107 127.699 84.4414 122.801L84.6107 121.681C84.652 121.396 84.5947 120.847 84.5174 120.569C84.3254 119.852 83.7307 119.159 83.0147 118.967C82.6893 118.879 82.3466 118.843 82.0186 118.881L82.0173 118.876ZM145.523 110.998C144.737 111.089 144.069 111.613 143.793 112.354L130.638 147.864C130.281 148.839 130.688 149.933 131.6 150.435C132.313 150.858 132.621 151.045 133.042 151.174C134.553 151.653 136.05 152.169 137.554 152.689C141.039 153.881 144.636 155.115 148.336 155.905C153.012 156.907 158.002 157.049 164.052 156.351C166.546 156.065 169.031 155.658 171.513 155.206C178.977 153.853 185.569 150.595 191.098 145.523C194.753 142.18 198.361 138.343 202.141 133.806C206.936 128.033 210.381 121.179 212.369 113.421C215.207 102.34 212.88 91.9393 205.449 82.5044C202.208 78.391 197.482 75.8136 191.78 75.0549C189.236 74.7069 186.712 74.6763 184.274 74.9576C179.094 75.5549 174.231 77.5523 169.827 80.9017C163.958 85.3538 160.436 90.4526 159.063 96.4887C157.827 101.925 159.108 106.677 162.772 110.232C163.999 111.425 165.467 112.185 166.886 112.914L168.227 113.62C169.717 114.462 171.41 114.782 173.258 114.57L174.018 114.454C174.613 114.34 175.203 114.249 175.797 114.181C176.481 114.102 177.174 114.057 177.863 114.064C181.105 114.097 183.923 116.488 184.434 119.627C184.971 123.003 183.141 126.101 180.075 126.999C177.89 127.628 176.219 127.993 174.642 128.175C173.098 128.352 171.705 128.341 170.398 128.143C160.078 126.547 152.853 121.673 148.307 113.246L147.556 111.998C147.139 111.308 146.36 110.921 145.561 110.996L145.521 111L145.523 110.998ZM49.3113 90.5233C47.4846 90.7339 45.6672 91.0233 43.8592 91.386C41.2324 91.906 38.8644 92.6886 36.8203 93.7033C29.4602 97.3594 23.8601 103.458 19.6933 112.35C16.8839 118.347 15.6546 124.739 14.4639 130.921L14.1532 132.549C13.3465 136.682 13.2132 140.703 13.7545 144.502C14.2985 148.278 14.8705 152.051 15.6266 155.779C15.9279 157.303 16.4319 158.791 16.9413 160.281L17.5386 162.079C17.8093 162.942 18.5946 163.534 19.496 163.55C19.6053 163.554 19.7253 163.546 19.844 163.533C20.5453 163.451 21.3814 163.103 21.7147 162.561L22.072 161.986C30.1602 150.426 39.2484 139.844 49.0806 130.541C55.5541 124.416 62.0675 118.336 68.5797 112.252L78.1132 103.344L78.6826 102.768C79.3786 102.04 79.7466 100.611 79.1586 99.7901C77.5505 97.5688 75.7652 95.9527 73.6958 94.85C69.0157 92.37 64.9756 90.9793 60.9889 90.4873C57.2808 90.0259 53.4607 90.0419 49.3099 90.5206L49.3113 90.5233ZM137.572 13.6376C136.237 13.791 134.886 14.451 133.041 15.839C128.741 19.1418 125.64 23.2072 122.997 28.8686C119.45 36.4741 117.546 44.7663 117.175 54.2292C117.097 56.1865 117.117 58.1439 117.131 60.1186L117.143 62.8613C117.141 63.4867 117.422 64.084 117.903 64.4814C118.347 64.8481 118.917 65.0174 119.482 64.9521C119.533 64.9467 119.583 64.9347 119.634 64.9294C120.082 64.8427 120.939 64.5267 121.245 64.188L124.429 60.6866C133.622 50.7691 140.205 39.5715 144.005 27.3993C144.559 25.6392 144.924 23.8899 145.087 22.2151C145.208 20.8778 145.141 19.0057 144.121 17.6684C142.508 15.5457 140.535 13.2976 137.572 13.639V13.6376Z" fill="#2F4936"/>
</g>
<defs>
<clipPath id="clip0_208_4285">
<rect width="227.04" height="250.848" fill="white"/>
</clipPath>
</defs>
</svg>
